<svg width="240" height="90" viewBox="0 0 240 90" fill="none" xmlns="http://www.w3.org/2000/svg">
  <!-- 定义一个适合横向场景的光晕渐变 -->
  <defs>
    <radialGradient id="sunGlowHorizontal" cx="0" cy="0" r="1" gradientUnits="userSpaceOnUse" gradientTransform="translate(15 15) rotate(45) scale(150 70)">
      <stop stop-color="#FFD180" stop-opacity="0.9"/>
      <stop offset="0.5" stop-color="#FFD99B" stop-opacity="0.4"/>
      <stop offset="1" stop-color="#FFFFFF" stop-opacity="0"/>
    </radialGradient>
  </defs>

  <!-- 左上角的太阳光晕 (主体在画布外，只露出光芒) -->
  <rect width="240" height="90" fill="url(#sunGlowHorizontal)" />
  <circle cx="15" cy="15" r="12" fill="#FFC107"/>
  <circle cx="15" cy="15" r="8" fill="#FFCA28"/>

  <!-- 云朵 1 (最左侧，被光照亮) -->
  <g transform="translate(-10, 35)">
    <path d="M54.5,39.8c-0.8-5.4-5.2-9.5-10.3-9.5 -3.7,0-6.9,2.2-8.7,5.5 -1-0.8-2.2-1.2-3.5-1.2 -3.5,0-6.3,2.8-6.3,6.3 0,0.2,0,0.3,0,0.5 -0.8,0-1.5,0.1-2.3,0.1 -4.7,0-8.4,3.8-8.4,8.4 0,3.9,2.6,7.1,6.2,8.1h25.9c4.1,0,7.4-3.3,7.4-7.4C60.9,43.8,58.2,40.1,54.5,39.8z" fill-opacity="0.9" fill="#FFFFFF"/>
    <!-- 高光 -->
    <path d="M44.4,30.3C41.2,31.7,39.5,34.5,40.8,37c-5.4,0.4-10,4.7-10.2,10c-0.2,0,1.1-2.9-1.2-5.5c2-6.7,8.4-11.4,15.6-11.4C45.8,30.1,47.3,30.2,44.4,30.3z" fill="#FFFDE7" opacity="0.8"/>
  </g>
  
  <!-- 云朵 2 (中间，主体) -->
  <g transform="translate(80, 20)">
      <path d="M78.6,56.8c-1.4-9.8-9.4-17.1-18.6-17.1c-6.6,0-12.4,3.9-15.7,9.8c-1.8-1.4-4-2.2-6.3-2.2c-6.3,0-11.4,5.1-11.4,11.4c0,0.3,0,0.6,0.1,0.9c-1.4,0-2.8,0.1-4.2,0.1c-8.4,0-15.2,6.8-15.2,15.2c0,7,4.8,12.9,11.2,14.6h46.7c7.4,0,13.4-6,13.4-13.4C92,62.8,86.1,57.2,78.6,56.8z" fill="#F5F5F5" />
      <!-- 高光 -->
      <path d="M60,39.7C55.6,41.9,53.2,46.9,55.1,51.5c-9.7,0.7-18,8.5-18.4,18c-0.3,0,2-5.3-2.1-10c3.6-12.1,15.1-20.6,28.2-20.6C64.6,38.9,67.3,39.1,60,39.7z" fill="#FFFDE7" opacity="0.7"/>
  </g>

  <!-- 云朵 3 (右侧，远景) -->
  <g transform="translate(185, 45)" opacity="0.85">
      <path d="M41.5,23.8c-0.5-3.2-3.1-5.7-6.2-5.7c-2.2,0-4.1,1.3-5.2,3.3c-0.6-0.5-1.3-0.7-2.1-0.7c-2.1,0-3.8,1.7-3.8,3.8c0,0.1,0,0.2,0,0.3c-0.5,0-0.9,0-1.4,0c-2.8,0-5,2.3-5,5c0,2.3,1.6,4.3,3.7,4.8h15.5c2.5,0,4.4-2,4.4-4.4C50.3,26.3,46.5,23.9,41.5,23.8z" fill="#E8EAF6"/>
  </g>
</svg>