<svg width="128" height="128" viewBox="0 0 128 128" fill="none" xmlns="http://www.w3.org/2000/svg">
<g>
<path d="M108.433 71.3939C113.883 83.6954 108.735 98.421 96.4333 103.871C84.1318 109.321 69.4062 104.173 63.9563 91.8715L108.433 71.3939Z" fill="#D93E2A"/>
<path d="M21.5667 71.3939C16.1168 83.6954 21.2649 98.421 33.5667 103.871C45.8682 109.321 60.5938 104.173 66.0437 91.8715L21.5667 71.3939Z" fill="#D93E2A"/>
<path d="M65 112C95.3757 112 120 94.3153 120 72.5C120 50.6847 95.3757 33 65 33C34.6243 33 10 50.6847 10 72.5C10 94.3153 34.6243 112 65 112Z" fill="#F44336"/>
<path d="M83.4545 42.6C82.1818 36.48 76.5091 32.2 70 32C60.2727 31.68 59.2364 26.8 62.4 22C66.0364 25.12 71.2364 26.56 75.3091 26.2C82.4 25.6 88.5455 20.68 93.4182 17C91.4545 23.32 87.7455 32.2 83.4545 42.6Z" fill="#4CAF50"/>
<path d="M60.1517 40.5999C56.0983 36.4111 50.412 34.0088 44.2349 34.2003C35.0392 34.4856 31.8125 29.5823 33.9961 24.3999C37.352 27.2399 42.4548 28.5352 47.4627 28.204C55.7766 27.6438 62.338 22.3888 67.5928 19.3999C66.1953 25.3377 64.0754 34.9084 60.1517 40.5999Z" fill="#66BB6A"/>
<path d="M38 78C38 74.6863 40.6863 72 44 72C47.3137 72 50 74.6863 50 78C50 81.3137 47.3137 84 44 84C40.6863 84 38 81.3137 38 78Z" fill="#2E2E2E"/>
<path d="M78 78C78 74.6863 80.6863 72 84 72C87.3137 72 90 74.6863 90 78C90 81.3137 87.3137 84 84 84C80.6863 84 78 81.3137 78 78Z" fill="#2E2E2E"/>
<path d="M52 94C52 92.8954 59.8954 92 69 92C78.1046 92 86 92.8954 86 94C86 95.1046 78.1046 96 69 96C59.8954 96 52 95.1046 52 94Z" fill="#442A24" fill-opacity="0.8"/>
<path d="M28.3444 61.5434C31.7458 59.988 35.5393 59.2001 39.4313 59.2001C47.7951 59.2001 55.4855 62.0833 61.0556 66.8L28.3444 61.5434Z" fill="#FF705E"/>
</g>
</svg>